{"title":"L.I.E. (2001) DVD RIP Gay Intrest","uid":9260548,"size":1599081759,"categoryP":"video","categoryS":"movies","magnet":"?xt=urn:btih:cd5003579d2dec74d449973f9115a6fb94cda94f&amp;dn=L.I.E.+%282001%29+DVD+RIP+Gay+Intrest&amp;tr=udp%3A%2F%2Ftracker.openbittorrent.com%3A80&amp;tr=udp%3A%2F%2Fopen.demonii.com%3A1337&amp;tr=udp%3A%2F%2Ftracker.coppersurfer.tk%3A6969&amp;tr=udp%3A%2F%2Fexodus.desync.com%3A6969","seeders":1,"leechers":2,"uploader":null,"files":-1,"time":1385618475,"description":"Includes Directories Commentory\n\n &lt;a href=&quot;\nhttp://www.imdb.com/title/tt0242587/&quot; rel=&quot;nofollow&quot; target=&quot;_NEW&quot;&gt;\nhttp://www.imdb.com/title/tt0242587/&lt;/a&gt;\n\n\n\n\nFormat                                   : MPEG-4\nFormat profile                           : Base Media / Version 2\nCodec ID                                 : mp42\nFile size                                : 1.47 GiB\nDuration                                 : 1h 37mn\nOverall bit rate mode                    : Variable\nOverall bit rate                         : 2 163 Kbps\nEncoded date                             : UTC 2013-11-21 11:23:37\nTagged date                              : UTC 2013-11-21 12:05:39\nWriting application                      : HandBrake 0.9.9 2013052900\n\nVideo\nID                                       : 1\nFormat                                   : AVC\nFormat/Info                              : Advanced Video Codec\nFormat profile                           : &lt;a class=&quot;__cf_email__&quot; href=&quot;/cdn-cgi/l/email-protection&quot; data-cfemail=&quot;a2eacbc5cae2ee978c90&quot;&gt;[email&amp;#160;protected]&lt;/a&gt;&lt;script cf-hash='f9e31' type=&quot;text/javascript&quot;&gt;\n/* &lt;![CDATA[ */!function(){try{var t=&quot;currentScript&quot;in document?document.currentScript:function(){for(var t=document.getElementsByTagName(&quot;script&quot;),e=t.length;e--;)if(t[e].getAttribute(&quot;cf-hash&quot;))return t[e]}();if(t&amp;&amp;t.previousSibling){var e,r,n,i,c=t.previousSibling,a=c.getAttribute(&quot;data-cfemail&quot;);if(a){for(e=&quot;&quot;,r=parseInt(a.substr(0,2),16),n=2;a.length-n;n+=2)i=parseInt(a.substr(n,2),16)^r,e+=String.fromCharCode(i);e=document.createTextNode(e),c.parentNode.replaceChild(e,c)}}}catch(u){}}();/* ]]&gt; */&lt;/script&gt;\nFormat settings, CABAC                   : Yes\nFormat settings, ReFrames                : 4 frames\nCodec ID                                 : avc1\nCodec ID/Info                            : Advanced Video Coding\nDuration                                 : 1h 37mn\nBit rate                                 : 1 674 Kbps\nWidth                                    : 720 pixels\nHeight                                   : 480 pixels\nDisplay aspect ratio                     : 16:9\nFrame rate mode                          : Variable\nFrame rate                               : 23.976 fps\nMinimum frame rate                       : 23.974 fps\nMaximum frame rate                       : 23.981 fps\nStandard                                 : NTSC\nColor space                              : YUV\nChroma subsampling                       : 4:2:0\nBit depth                                : 8 bits\nScan type                                : Progressive\nBits/(Pixel*Frame)                       : 0.202\nStream size                              : 1.14 GiB (77%)\nWriting library                          : x264 core 130 r2273 b3065e6\nEncoding settings                        : cabac=1 / ref=2 / deblock=1:0:0 / \nEncoded date                             : UTC 2013-11-21 11:23:37\nTagged date                              : UTC 2013-11-21 12:05:39\nColor primaries                          : BT.601 NTSC\nTransfer characteristics                 : BT.709\nMatrix coefficients                      : BT.601\n\nAudio #1\nID                                       : 2\nFormat                                   : AAC\nFormat/Info                              : Advanced Audio Codec\nFormat profile                           : LC\nCodec ID                                 : 40\nDuration                                 : 1h 37mn\nBit rate mode                            : Variable\nBit rate                                 : 160 Kbps\nMaximum bit rate                         : 203 Kbps\nChannel(s)                               : 2 channels\nChannel positions                        : Front: L R\nSampling rate                            : 48.0 KHz\nCompression mode                         : Lossy\nStream size                              : 111 MiB (7%)\nLanguage                                 : English\nEncoded date                             : UTC 2013-11-21 11:23:37\nTagged date                              : UTC 2013-11-21 12:05:38\n\n\nStoryline\n\nFifteen-year-old Howie loses just about everything and everyone in the space of a single week, but ends up finding himself in the process. His mother has just died. His father, a building contractor, can barely keep tabs on his young girlfriend, let alone his own son. Thusly, the teen must navigate his adolescence virtually unsupervised. Floating towards an ill-behaved existence, Howie and his crowd begin robbing houses in the middle-class neighborhoods off the Long Island Expressway. Together, he and his best friend Gary break into a place belonging to an old guy named Big John, a local man who is a respected pillar of the community. When Big John fingers Gary for the crime, Howie learns that his pal has been leading a secret, dangerous but also alluring double life. Subsequently, we also discover that Big John has secrets of his own","torrent":{"xt":"urn:btih:cd5003579d2dec74d449973f9115a6fb94cda94f","amp;dn":"L.I.E.+%282001%29+DVD+RIP+Gay+Intrest","amp;tr":["udp%3A%2F%2Ftracker.openbittorrent.com%3A80","udp%3A%2F%2Fopen.demonii.com%3A1337","udp%3A%2F%2Ftracker.coppersurfer.tk%3A6969","udp%3A%2F%2Fexodus.desync.com%3A6969"],"infoHash":"cd5003579d2dec74d449973f9115a6fb94cda94f","infoHashBuffer":{"type":"Buffer","data":[205,80,3,87,157,45,236,116,212,73,151,63,145,21,166,251,148,205,169,79]},"announce":[],"urlList":[]}}